<?xml version="1.0" encoding="UTF-8" standalone="no"?>
<!-- Generator: Adobe Illustrator 16.0.0, SVG Export Plug-In . SVG Version: 6.00 Build 0)  -->

<svg
   version="1.1"
   id="Layer_1"
   x="0px"
   y="0px"
   width="272.945px"
   height="398.881px"
   viewBox="0 0 272.945 398.881"
   enable-background="new 0 0 272.945 398.881"
   xml:space="preserve"
   sodipodi:docname="favicon.svg"
   inkscape:version="1.4 (86a8ad7, 2024-10-11)"
   xmlns:inkscape="http://www.inkscape.org/namespaces/inkscape"
   xmlns:sodipodi="http://sodipodi.sourceforge.net/DTD/sodipodi-0.dtd"
   xmlns="http://www.w3.org/2000/svg"
   xmlns:svg="http://www.w3.org/2000/svg"><defs
   id="defs51" /><sodipodi:namedview
   id="namedview51"
   pagecolor="#ffffff"
   bordercolor="#000000"
   borderopacity="0.25"
   inkscape:showpageshadow="2"
   inkscape:pageopacity="0.0"
   inkscape:pagecheckerboard="0"
   inkscape:deskcolor="#d1d1d1"
   inkscape:zoom="1.4536354"
   inkscape:cx="136.55419"
   inkscape:cy="227.01704"
   inkscape:window-width="1920"
   inkscape:window-height="1022"
   inkscape:window-x="-8"
   inkscape:window-y="-8"
   inkscape:window-maximized="1"
   inkscape:current-layer="Layer_1" />


























































<path
   style="fill:#9e1700;fill-opacity:0.461847;stroke-width:0.664676"
   d="m 186.09536,119.07148 13.28995,-35.072719 20.77511,-8.041055 20.46955,11.804953 15.12305,21.556891 10.54029,27.37384 4.73552,29.76906 -1.52759,28.40034 -10.38753,23.78101 -18.94202,10.94954 -25.81609,-14.37125 -22.91371,-42.94269 z"
   id="path5-0-4-8" /><path
   style="fill:#9e1700;fill-opacity:0.461847;stroke-width:0.986565"
   d="m 146.28252,116.26726 19.72601,-52.057717 30.83604,-11.935186 30.38254,17.521861 22.44683,31.996442 15.64474,40.63043 7.0288,44.18558 -2.26735,42.15404 -15.418,35.29766 -28.11522,16.25217 -38.31831,-21.33096 -34.01033,-63.73895 z"
   id="path5-0-4" /><path
   style="fill:#9e1700;fill-opacity:0.461847;stroke-width:1.18438"
   d="m 110.39971,118.47696 24.35085,-60.776512 38.06571,-13.934125 37.50589,20.45648 27.70961,37.355317 19.31273,47.43533 8.67674,51.58591 -2.79894,49.21415 -19.03285,41.20943 -34.70697,18.97413 -47.30223,-24.90354 -41.98423,-74.41415 z"
   id="path5-0" /><path
   style="fill:#9e1700;fill-opacity:0.461847;stroke-width:1.43338"
   d="M 63.165152,117.56041 92.19301,42.884391 137.56989,25.76353 l 44.70956,25.134865 33.0317,45.898448 23.02209,58.283717 10.34327,63.38356 -3.33654,60.46935 -22.68843,50.634 -41.37305,23.3135 L 124.89106,322.282 74.843024,230.84942 Z"
   id="path5" /><path
   style="fill:#9e1700;fill-opacity:0.461847;stroke-width:1.60922"
   d="m 1.8457786,126.92843 -0.7827882,65.36284 12.1332236,53.22963 25.049234,52.44684 34.442699,40.705 68.885403,30.52876 55.96939,-25.44063 16.43855,-23.87506 10.95905,-28.96316 7.04509,-65.36286 L 221.41798,159.41415 209.67615,128.8854 195.58597,99.530824 152.14119,51.389335 99.302955,26.731491 66.034444,30.254038 27.286408,61.565581 Z"
   id="path4" /></svg>
