<?xml version="1.0" encoding="UTF-8" standalone="no"?>
<!-- Generator: Adobe Illustrator 16.0.0, SVG Export Plug-In . SVG Version: 6.00 Build 0)  -->

<svg
   version="1.1"
   id="Layer_1"
   x="0px"
   y="0px"
   width="272.945px"
   height="398.881px"
   viewBox="0 0 272.945 398.881"
   enable-background="new 0 0 272.945 398.881"
   xml:space="preserve"
   sodipodi:docname="icon-dark.svg"
   inkscape:version="1.4.2 (ebf0e94, 2025-05-08)"
   xmlns:inkscape="http://www.inkscape.org/namespaces/inkscape"
   xmlns:sodipodi="http://sodipodi.sourceforge.net/DTD/sodipodi-0.dtd"
   xmlns="http://www.w3.org/2000/svg"
   xmlns:svg="http://www.w3.org/2000/svg"><defs
   id="defs51" /><sodipodi:namedview
   id="namedview51"
   pagecolor="#ffffff"
   bordercolor="#000000"
   borderopacity="0.25"
   inkscape:showpageshadow="2"
   inkscape:pageopacity="0.0"
   inkscape:pagecheckerboard="0"
   inkscape:deskcolor="#d1d1d1"
   inkscape:zoom="1.0278755"
   inkscape:cx="17.025408"
   inkscape:cy="194.57609"
   inkscape:window-width="1366"
   inkscape:window-height="710"
   inkscape:window-x="-8"
   inkscape:window-y="-8"
   inkscape:window-maximized="1"
   inkscape:current-layer="Layer_1" />







<path
   d="M154.275,212.857c-3.48-2.636-2.807-7.001-0.855-9.163c0.527-0.59,1.27-0.222,1.736-0.807  c1.688-2.103,6.197-3.806,8.047-2.929c1.682,0.809,2.301,5.228,1.635,8.34c-0.328,1.563,0.496,0.976-0.227,3.209  C163.464,215.022,157.927,215.633,154.275,212.857 M158.407,206.822c1.832,0.854,4.98,1.6,5.395,0.967  c0.416-0.637,0.555-5.475-1.188-6.635c-1.74-1.158-6.572,1.475-6.684,2.921C155.825,205.537,156.457,205.92,158.407,206.822"
   id="path8"
   style="paint-order:stroke fill markers;fill-rule:nonzero;fill:#000000;fill-opacity:1" />


















































<path
   style="fill:#99f9f9;fill-opacity:1;fill-rule:nonzero;stroke-width:1.14864;paint-order:stroke fill markers"
   d="M 194.89562,61.841122 25.127973,207.04354 134.09059,205.11813 18.80425,352.73239 251.32269,174.36525 115.60586,173.6088 Z"
   id="path52"
   sodipodi:nodetypes="ccccccc" /></svg>
